<?xml version="1.0" encoding="utf-8"?>
<!-- Generator: Adobe Illustrator 19.0.0, SVG Export Plug-In . SVG Version: 6.00 Build 0)  -->
<!DOCTYPE svg PUBLIC "-//W3C//DTD SVG 1.1//EN" "http://www.w3.org/Graphics/SVG/1.1/DTD/svg11.dtd">
<svg version="1.1" id="Layer_1" xmlns="http://www.w3.org/2000/svg" xmlns:xlink="http://www.w3.org/1999/xlink" x="0px" y="0px"
	 viewBox="0 0 360 144" style="enable-background:new 0 0 360 144;" xml:space="preserve">
<style type="text/css">
	.st0{fill-rule:evenodd;clip-rule:evenodd;fill:#6B2534;}
	.st1{fill-rule:evenodd;clip-rule:evenodd;}
	.st2{fill-rule:evenodd;clip-rule:evenodd;fill:#008264;}
	.st3{fill-rule:evenodd;clip-rule:evenodd;fill:#E11F26;}
</style>
<g>
	<path class="st0" d="M94.2,58.1c1.2,8.3-3.8,18.5-13.1,25.1c-11.4,8.1-24.7,7.6-29.9-1.2c-1.5-2.6-2.2-5.7-2-8.9l-6,16h63
		L94.4,58.6L94.2,58.1z"/>
	<path class="st0" d="M91.8,51.7l-7.1-18.3h-20l-9.8,25.5c2-2.7,4.6-5.2,7.5-7.3c11.4-8.1,24.7-7.6,29.9,1.1L91.8,51.7z"/>
	<path class="st0" d="M103.4,89.1h15.8V70.9c0-4.6,1.3-7.4,6.2-7.4c4.5,0,5.6,3.1,5.6,6.7v18.9h15.8V67.7c0-9.8-4.9-15.4-15.5-15.4
		c-6,0-9.9,2.3-13.5,6.6v-5.6h-14.5V89.1z"/>
	<path class="st0" d="M188.9,89.1v-0.7c-2.1-1.5-2.1-2.5-2.1-4.6V67.1c0-8.5-1.1-14.8-20-14.8c-15.8,0-21.8,4.4-21.8,12h15.2
		c0.4-3.1,3.4-3.5,5.6-3.5c1.7,0,5.2,0.3,5.2,2.9c0,6.7-28.4-0.7-28.4,15.6c0,7.4,6.7,10.8,14.2,10.8c5.9,0,10.5-1.1,15-4.8l0.8,3.8
		H188.9z M163.9,82.1c-3.1,0-5-1.2-5-3c0-4.6,6.9-3.5,12-5.8C171.3,78.2,169.5,82.1,163.9,82.1z"/>
	<path class="st0" d="M229.3,67c-1.1-10.6-11.2-14.7-21.9-14.7c-13.2,0-22.8,7-22.8,19.2c0,12.1,9.9,18.6,22.8,18.6
		c11,0,20.8-4,22.2-14.9h-16c-0.5,2.8-2.1,5.3-6.2,5.3c-4.6,0-6.9-3.5-6.9-8.9c0-4.2,1-9.8,6.9-9.8c1.8,0,3.1,0.5,4.1,1.4
		c1,0.9,1.6,2.1,1.7,3.7H229.3z"/>
	<path class="st0" d="M271.4,89.1v-0.7c-2.1-1.5-2.1-2.5-2.1-4.6V67.1c0-8.5-1.1-14.8-20-14.8c-15.8,0-21.8,4.4-21.8,12h15.2
		c0.4-3.1,3.4-3.5,5.6-3.5c1.7,0,5.2,0.3,5.2,2.9c0,6.7-28.4-0.7-28.4,15.6c0,7.4,6.7,10.8,14.2,10.8c5.9,0,10.5-1.1,15-4.8l0.8,3.8
		H271.4z M246.5,82.1c-3.1,0-5-1.2-5-3c0-4.6,6.9-3.5,12-5.8C253.9,78.2,252,82.1,246.5,82.1z"/>
	<path class="st0" d="M288.9,53.3c-0.4-5.7,1.4-5.7,6.6-5.7v-8.9h-6.8c-10.1,0-15.6,2-15.6,14.7h-5.3v8.2h5.3v27.6h15.8V61.5h6.6
		v-8.2H288.9z"/>
	<path class="st0" d="M306.2,48.8h10.4l13.1-10.1h-15.9L306.2,48.8z M306.6,67.2c0-3.8,2.7-6.2,7.4-6.2c3.7,0,7,2.9,7,6.2H306.6z
		 M336.8,74.4c0.2-13-8.7-22.1-23.5-22.1c-12.8,0-22.6,7.5-22.6,19.2c0,12,9.9,18.6,22.7,18.6c9.3,0,19.3-2.9,22.1-11.8h-15.2
		c-1.1,2.1-3.4,3.1-5.9,3.1c-4.2,0-7.8-2.8-7.8-7H336.8z"/>
	<g>
		<path class="st1" d="M47.6,106.1l-1.9-4.2l-2,4.2H47.6z M44.8,100.5h1.9l4.5,9.5h-1.9l-1.3-2.9h-4.9l-1.4,2.9h-1.7L44.8,100.5z"/>
		<path class="st1" d="M54.1,107c0,0.5,0.2,1,0.5,1.3c0.6,0.6,1.6,0.9,3,0.9c0.6,0,1.2-0.1,1.7-0.2c1-0.3,1.5-0.8,1.5-1.4
			c0-0.5-0.2-0.9-0.6-1.1c-0.4-0.2-1.1-0.4-2-0.6l-1.7-0.3c-1.1-0.2-1.9-0.4-2.3-0.6c-0.8-0.4-1.2-1-1.2-1.8c0-0.9,0.4-1.6,1.2-2.1
			c0.8-0.6,1.9-0.8,3.3-0.8c1.3,0,2.4,0.2,3.3,0.7c0.9,0.5,1.4,1.3,1.4,2.3h-1.6c-0.1-0.5-0.3-0.9-0.5-1.2c-0.5-0.5-1.4-0.7-2.6-0.7
			c-1,0-1.7,0.2-2.2,0.5c-0.4,0.3-0.7,0.7-0.7,1.1c0,0.5,0.3,0.8,0.8,1c0.3,0.1,1.1,0.3,2.3,0.5l1.8,0.3c0.8,0.1,1.5,0.3,2,0.6
			c0.8,0.4,1.2,1.1,1.2,1.9c0,1.1-0.5,1.8-1.5,2.3c-1,0.5-2.2,0.7-3.5,0.7c-1.6,0-2.8-0.3-3.6-0.9c-0.9-0.6-1.3-1.4-1.3-2.4H54.1z"
			/>
		<path class="st1" d="M75.1,101.9c0.8,0.8,1.2,1.9,1.2,3.2c0,1.4-0.5,2.6-1.4,3.6c-1.1,1.1-2.7,1.7-4.8,1.7c-1.9,0-3.4-0.5-4.5-1.5
			c-1-0.9-1.5-2.1-1.5-3.5c0-1.3,0.4-2.4,1.3-3.3c1.1-1.2,2.7-1.8,4.8-1.8C72.4,100.2,74,100.8,75.1,101.9z M73.6,107.9
			c0.7-0.8,1-1.8,1-2.8c0-1.1-0.4-2-1.2-2.7c-0.8-0.7-1.8-1-3.1-1c-1.3,0-2.3,0.3-3.2,1c-0.8,0.7-1.2,1.7-1.2,3c0,1.1,0.3,1.9,1,2.7
			c0.7,0.7,1.8,1.1,3.4,1.1C71.8,109.2,72.9,108.8,73.6,107.9z"/>
		<path class="st1" d="M87.4,101.2c0.9,0.6,1.4,1.4,1.5,2.2h-1.6c-0.2-0.6-0.6-1.1-1.1-1.5c-0.6-0.4-1.3-0.5-2.3-0.5
			c-1.2,0-2.2,0.3-3,1c-0.8,0.7-1.1,1.7-1.1,3c0,1.1,0.3,2,1,2.7c0.7,0.7,1.7,1,3.1,1c1.2,0,2.2-0.4,2.8-1.1
			c0.3-0.4,0.6-0.9,0.8-1.5H89c-0.1,1-0.6,1.8-1.5,2.5c-1,0.8-2.3,1.2-4,1.2c-1.5,0-2.7-0.3-3.7-1c-1.3-0.9-1.9-2.3-1.9-4.1
			c0-1.4,0.5-2.6,1.5-3.5c1.1-1,2.5-1.5,4.4-1.5C85.3,100.2,86.6,100.6,87.4,101.2z"/>
		<rect x="91.6" y="100.5" class="st1" width="1.7" height="9.5"/>
		<path class="st1" d="M102.7,106.1l-1.9-4.2l-2,4.2H102.7z M99.9,100.5h1.9l4.5,9.5h-1.9l-1.3-2.9h-4.9l-1.4,2.9h-1.7L99.9,100.5z"
			/>
		<path class="st1" d="M117,101.2c0.9,0.6,1.4,1.4,1.5,2.2h-1.6c-0.2-0.6-0.6-1.1-1.1-1.5c-0.6-0.4-1.3-0.5-2.3-0.5
			c-1.2,0-2.2,0.3-3,1c-0.8,0.7-1.1,1.7-1.1,3c0,1.1,0.3,2,1,2.7c0.7,0.7,1.7,1,3.1,1c1.2,0,2.2-0.4,2.8-1.1
			c0.3-0.4,0.6-0.9,0.8-1.5h1.6c-0.1,1-0.6,1.8-1.5,2.5c-1,0.8-2.3,1.2-4,1.2c-1.5,0-2.7-0.3-3.7-1c-1.3-0.9-1.9-2.3-1.9-4.1
			c0-1.4,0.5-2.6,1.5-3.5c1.1-1,2.5-1.5,4.4-1.5C114.9,100.2,116.1,100.6,117,101.2z"/>
		<rect x="121.2" y="100.5" class="st1" width="1.7" height="9.5"/>
		<path class="st1" d="M136.1,101.9c0.8,0.8,1.2,1.9,1.2,3.2c0,1.4-0.5,2.6-1.4,3.6c-1.1,1.1-2.7,1.7-4.8,1.7
			c-1.9,0-3.4-0.5-4.5-1.5c-1-0.9-1.5-2.1-1.5-3.5c0-1.3,0.4-2.4,1.3-3.3c1.1-1.2,2.7-1.8,4.8-1.8
			C133.4,100.2,135,100.8,136.1,101.9z M134.6,107.9c0.7-0.8,1-1.8,1-2.8c0-1.1-0.4-2-1.2-2.7c-0.8-0.7-1.8-1-3.1-1
			c-1.3,0-2.3,0.3-3.2,1c-0.8,0.7-1.2,1.7-1.2,3c0,1.1,0.3,1.9,1,2.7c0.7,0.7,1.8,1.1,3.4,1.1C132.8,109.2,133.9,108.8,134.6,107.9z
			"/>
		<polygon class="st1" points="139.5,100.5 141.5,100.5 147.8,108.2 147.8,100.5 149.4,100.5 149.4,110 147.5,110 141.1,102.3 
			141.1,110 139.5,110 		"/>
		<polygon class="st1" points="157,100.5 159,100.5 165.3,108.2 165.3,100.5 166.9,100.5 166.9,110 165,110 158.6,102.3 158.6,110 
			157,110 		"/>
		<path class="st1" d="M176.1,106.1l-1.9-4.2l-2,4.2H176.1z M173.3,100.5h1.9l4.5,9.5h-1.9l-1.3-2.9h-4.9l-1.4,2.9h-1.7L173.3,100.5
			z"/>
		<path class="st1" d="M190.4,101.2c0.9,0.6,1.4,1.4,1.5,2.2h-1.7c-0.2-0.6-0.6-1.1-1.1-1.5c-0.6-0.4-1.3-0.5-2.3-0.5
			c-1.2,0-2.2,0.3-3,1c-0.8,0.7-1.1,1.7-1.1,3c0,1.1,0.3,2,1,2.7c0.7,0.7,1.7,1,3.1,1c1.2,0,2.2-0.4,2.8-1.1
			c0.3-0.4,0.6-0.9,0.8-1.5h1.6c-0.1,1-0.6,1.8-1.5,2.5c-1,0.8-2.3,1.2-4,1.2c-1.5,0-2.7-0.3-3.7-1c-1.3-0.9-1.9-2.3-1.9-4.1
			c0-1.4,0.5-2.6,1.5-3.5c1.1-1,2.5-1.5,4.4-1.5C188.3,100.2,189.6,100.6,190.4,101.2z"/>
		<rect x="194.6" y="100.5" class="st1" width="1.7" height="9.5"/>
		<path class="st1" d="M209.5,101.9c0.8,0.8,1.2,1.9,1.2,3.2c0,1.4-0.5,2.6-1.4,3.6c-1.1,1.1-2.7,1.7-4.8,1.7
			c-1.9,0-3.4-0.5-4.5-1.5c-1-0.9-1.5-2.1-1.5-3.5c0-1.3,0.4-2.4,1.3-3.3c1.1-1.2,2.7-1.8,4.8-1.8
			C206.8,100.2,208.5,100.8,209.5,101.9z M208,107.9c0.7-0.8,1-1.8,1-2.8c0-1.1-0.4-2-1.2-2.7c-0.8-0.7-1.8-1-3.1-1
			c-1.3,0-2.3,0.3-3.2,1c-0.8,0.7-1.2,1.7-1.2,3c0,1.1,0.3,1.9,1,2.7c0.7,0.7,1.8,1.1,3.4,1.1C206.3,109.2,207.4,108.8,208,107.9z"
			/>
		<polygon class="st1" points="213,100.5 215,100.5 221.3,108.2 221.3,100.5 222.9,100.5 222.9,110 221,110 214.6,102.3 214.6,110 
			213,110 		"/>
		<path class="st1" d="M232.1,106.1l-1.9-4.2l-2,4.2H232.1z M229.3,100.5h1.9l4.5,9.5h-1.9l-1.3-2.9h-4.9l-1.4,2.9h-1.7L229.3,100.5
			z"/>
		<polygon class="st1" points="237.5,100.5 239.2,100.5 239.2,108.9 245.5,108.9 245.5,110 237.5,110 		"/>
		<path class="st1" d="M256.2,108.9c0.6,0,1,0,1.4-0.1c0.7-0.2,1.2-0.5,1.6-1c0.3-0.4,0.6-0.9,0.7-1.5c0.1-0.4,0.1-0.7,0.1-1
			c0-1.2-0.3-2.1-0.9-2.8c-0.6-0.7-1.6-1-3-1h-3v7.3H256.2z M251.5,100.5h5.1c1.7,0,3,0.5,4,1.4c0.8,0.8,1.3,1.9,1.3,3.2
			c0,1-0.2,1.9-0.7,2.7c-0.9,1.4-2.4,2.2-4.5,2.2h-5V100.5z"/>
		<polygon class="st1" points="264.3,100.5 273.4,100.5 273.4,101.7 266,101.7 266,104.6 272.9,104.6 272.9,105.7 266,105.7 
			266,108.9 273.5,108.9 273.5,110 264.3,110 		"/>
		<polygon class="st1" points="275.9,100.5 277.6,100.5 277.6,108.9 284,108.9 284,110 275.9,110 		"/>
		<path class="st1" d="M298.8,101.2c0.9,0.6,1.4,1.4,1.5,2.2h-1.6c-0.2-0.6-0.6-1.1-1.1-1.5c-0.6-0.4-1.3-0.5-2.3-0.5
			c-1.2,0-2.2,0.3-3,1c-0.8,0.7-1.1,1.7-1.1,3c0,1.1,0.3,2,1,2.7c0.7,0.7,1.7,1,3.1,1c1.2,0,2.2-0.4,2.8-1.1
			c0.3-0.4,0.6-0.9,0.8-1.5h1.7c-0.1,1-0.6,1.8-1.5,2.5c-1,0.8-2.3,1.2-4,1.2c-1.5,0-2.7-0.3-3.7-1c-1.3-0.9-1.9-2.3-1.9-4.1
			c0-1.4,0.5-2.6,1.5-3.5c1.1-1,2.5-1.5,4.4-1.5C296.7,100.2,297.9,100.6,298.8,101.2z"/>
		<path class="st1" d="M309,106.1l-1.9-4.2l-2,4.2H309z M306.2,100.5h1.9l4.5,9.5h-1.9l-1.3-2.9h-4.9l-1.4,2.9h-1.7L306.2,100.5z"/>
		<polygon class="st1" points="314.5,100.5 323.2,100.5 323.2,101.7 316.2,101.7 316.2,104.6 322.4,104.6 322.4,105.7 316.2,105.7 
			316.2,110 314.5,110 		"/>
		<polygon class="st1" points="325.4,100.5 334.5,100.5 334.5,101.7 327,101.7 327,104.6 333.9,104.6 333.9,105.7 327,105.7 
			327,108.9 334.6,108.9 334.6,110 325.4,110 		"/>
	</g>
	<path class="st1" d="M335.9,49.1c-0.9,0.9-1.4,2-1.4,3.3c0,1.3,0.5,2.4,1.4,3.4c0.9,0.9,2,1.4,3.3,1.4c1.3,0,2.4-0.5,3.3-1.4
		c0.9-0.9,1.4-2.1,1.4-3.4c0-1.3-0.5-2.4-1.4-3.3c-0.9-1-2-1.4-3.3-1.4C337.9,47.7,336.8,48.2,335.9,49.1z M343.2,56.5
		c-1.1,1.1-2.4,1.6-4,1.6c-1.6,0-3-0.6-4.1-1.7c-1.1-1.1-1.7-2.5-1.7-4.1c0-1.7,0.6-3.1,1.8-4.2c1.1-1,2.4-1.5,3.9-1.5
		c1.6,0,2.9,0.6,4,1.7c1.1,1.1,1.7,2.5,1.7,4C344.9,54,344.4,55.4,343.2,56.5z M339.7,50.5c-0.2-0.1-0.5-0.1-1-0.1h-0.4v1.8h0.6
		c0.4,0,0.7-0.1,0.9-0.2c0.2-0.2,0.3-0.4,0.3-0.8C340.3,50.9,340.1,50.6,339.7,50.5z M336.7,55.6v-6.3c0.4,0,1,0,1.8,0
		c0.8,0,1.2,0,1.3,0c0.5,0,0.9,0.1,1.2,0.3c0.6,0.3,0.8,0.8,0.8,1.5c0,0.5-0.2,0.9-0.4,1.2c-0.3,0.2-0.7,0.4-1.1,0.4
		c0.4,0.1,0.7,0.2,0.9,0.4c0.4,0.3,0.6,0.8,0.6,1.4V55c0,0.1,0,0.1,0,0.2c0,0.1,0,0.1,0,0.2l0.1,0.2h-1.6c-0.1-0.2-0.1-0.5-0.1-0.9
		c0-0.4,0-0.6-0.1-0.8c-0.1-0.2-0.2-0.4-0.5-0.5c-0.1-0.1-0.3-0.1-0.6-0.1l-0.4,0h-0.3v2.2H336.7z"/>
	<g>
		<path class="st2" d="M53.7,83c14.8-7,22.7-28.6,39.9-30.1C82.7,55.5,70.2,82.3,53.7,83z"/>
		<path class="st2" d="M29.6,78.5c19.7,0.8,41.2-25.9,63.8-25.6C72.7,55.5,48.5,82.5,29.6,78.5z"/>
		<path class="st2" d="M6.3,76c29.5-0.5,67.3-28.7,87.3-23.1C71.5,50.7,29.3,80.7,6.3,76z"/>
		<polygon class="st3" points="105.7,48.1 106.9,48.9 105.7,49.3 		"/>
		<path class="st2" d="M97.6,53.8c-2.3,0.2-4.1-0.2-4.3-1.2c-0.3-1.2,2.2-2,5.1-2.8c-1.7,0-3-0.3-3.6-1.4c-0.7-0.1-1.2-0.2-1.6-0.4
			c0.3-0.5,0.8-0.8,1.4-1.1c-1.1,0-3.5-1.6-3.7-2.7c0,0,5.6,2.6,6.3,2.7c0.5,0.1,0.8,0,1.3,0.1c0.8,0.2,1.5,1.2,1.9,2.2
			c0.8-0.2,1.3-0.3,1.8-0.4c0-1,0.8-2,1.9-2c1,0,1.9,0.8,1.9,1.9c0,1-0.8,1.9-1.9,1.9c0,0.3-0.2,0.6-0.4,0.9
			c-0.6-0.1-1.3-0.3-1.9-0.3c-2.3,0-4.2,1-4.2,2.2L97.6,53.8z"/>
		<path class="st3" d="M97.9,53.3c0-1.1,1.6-1.9,3.6-1.9c0.6,0,1.2,0.2,1.7,0.3c-0.4,0.6-1.4,1.2-3,1.6c-0.7,0.2-1.4,0.3-2.1,0.4
			L97.9,53.3z"/>
	</g>
</g>
</svg>
