<?xml version="1.0" encoding="utf-8"?>
<!-- Generator: Adobe Illustrator 21.0.0, SVG Export Plug-In . SVG Version: 6.00 Build 0)  -->
<svg version="1.1"
	 id="svg2" xmlns:cc="http://creativecommons.org/ns#" xmlns:dc="http://purl.org/dc/elements/1.1/" xmlns:rdf="http://www.w3.org/1999/02/22-rdf-syntax-ns#" xmlns:svg="http://www.w3.org/2000/svg"
	 xmlns="http://www.w3.org/2000/svg" xmlns:xlink="http://www.w3.org/1999/xlink" x="0px" y="0px" viewBox="0 0 1185 471"
	 style="enable-background:new 0 0 1185 471;" xml:space="preserve">
<style type="text/css">
	.st0{clip-path:url(#SVGID_2_);}
	.st1{fill:#FFFFFF;}
</style>
<g id="g10_1_" transform="matrix(1.3333333,0,0,-1.3333333,0,1056)">
	<g id="g14_1_">
		<g>
			<g>
				<defs>
					<rect id="SVGID_1_" x="-644.7" y="-294.4" width="2176" height="1408"/>
				</defs>
				<clipPath id="SVGID_2_">
					<use xlink:href="#SVGID_1_"  style="overflow:visible;"/>
				</clipPath>
				<g id="g16_1_" class="st0">
					<g id="g298" transform="translate(567.1475,555.4502)">
						<path id="path300" class="st1" d="M-168.7,13.6v-5h-97.9v5h6.2c5.4,0,9.8,1,13.1,2.9c2.4,1.3,4.2,3.5,5.5,6.7
							c1,2.2,1.5,8,1.5,17.5v123.6c0,9.6-0.5,15.6-1.5,18s-3.1,4.5-6.2,6.3c-3.1,1.8-7.3,2.7-12.5,2.7h-6.2v5h98v-5h-6.2
							c-5.4,0-9.8-1-13.1-2.9c-2.4-1.3-4.3-3.5-5.6-6.7c-1-2.2-1.5-8-1.5-17.5V40.6c0-9.6,0.5-15.6,1.6-18s3.1-4.5,6.2-6.3
							c3.1-1.8,7.2-2.7,12.4-2.7L-168.7,13.6L-168.7,13.6z"/>
					</g>
					<g id="g302" transform="translate(674.5605,583.9746)">
						<path id="path304" class="st1" d="M-168.7,13.6l4.3-3.3c-6.1-11.5-13.7-20-22.7-25.6c-9.1-5.6-18.7-8.4-29-8.4
							c-17.2,0-31,6.5-41.3,19.5c-10.3,13-15.5,28.6-15.5,46.9c0,17.6,4.7,33.1,14.2,46.5c11.4,16.2,27.1,24.2,47,24.2
							c13.4,0,24.1-3.4,32-10.1c7.9-6.7,11.8-14.3,11.8-22.6c0-5.3-1.6-9.5-4.8-12.6c-3.2-3.1-7.4-4.7-12.6-4.7
							c-5.5,0-10,1.8-13.6,5.4c-3.6,3.6-5.8,10.1-6.6,19.3c-0.6,5.8-1.9,9.9-4.1,12.2c-2.1,2.3-4.6,3.5-7.5,3.5
							c-4.5,0-8.2-2.3-11.4-7.1c-4.8-7.1-7.2-18-7.2-32.6c0-12.2,1.9-23.8,5.8-34.9c3.9-11.1,9.2-19.4,15.9-24.8c5.1-4,11.1-6,18-6
							c4.5,0,8.8,1.1,12.9,3.2C-179,3.7-174.2,7.7-168.7,13.6"/>
					</g>
					<g id="g306" transform="translate(759.5654,553.7593)">
						<path id="path308" class="st1" d="M-168.7,13.6c4.1-3.4,9.9-5.2,17.3-5.2c6.3,0,11.9,1.5,16.8,4.6c4.9,3.1,9.7,8.1,14.3,14.9
							l-4.2,3.4c-2.5-3.5-4.9-5.2-7.3-5.2c-1.2,0-2.2,0.4-3.1,1.1c-0.9,0.7-1.6,1.9-2.1,3.4c-0.5,1.5-0.7,5.2-0.7,11.2v50.3
							c0,13.9-0.6,22.9-1.9,26.7c-2.1,6.1-6.8,11.8-13.9,17c-7.2,5.2-16.9,7.8-29.2,7.8c-10.2,0-20-1.6-29.4-4.8
							c-9.4-3.2-16.8-7.9-22-13.9c-5.3-6-7.9-12.4-7.9-19c0-4.7,1.9-8.8,5.9-12.3c3.9-3.5,8.8-5.2,14.6-5.2c5.5,0,9.8,1.6,13.2,4.7
							c3.4,3.2,5.1,7,5.1,11.5c0,3.7-1.8,7.5-5.3,11.5c-2.6,2.9-3.9,5.2-3.9,7.2c0,2.2,1.2,4.1,3.6,5.8c3.9,2.7,8.8,4,14.9,4
							c3.7,0,7.1-0.9,10.1-2.8s5-4.1,6.1-6.6c1-2.5,1.6-8.7,1.6-18.4v-13c-28.6-13.1-47.1-23.7-55.6-31.6s-12.7-16.8-12.7-26.7
							c0-7.3,2.5-13.4,7.3-18.2c4.9-4.9,11.1-7.3,18.5-7.3c12.6,0,26.8,6.9,42.6,20.8C-175.4,22.2-172.8,17-168.7,13.6 M-192.4,31.7
							c-4.2,0-7.5,1.2-9.8,3.7c-3.1,3.2-4.6,7-4.6,11.2c0,5.1,1.8,10.1,5.4,15.1c5.5,7.5,13.8,14.5,25.1,21.1V39.4
							C-182.4,34.3-187.8,31.7-192.4,31.7"/>
					</g>
					<g id="g310" transform="translate(864.5557,666.083)">
						<path id="path312" class="st1" d="M-168.7,13.6l0.4-89.5c0-8.7,0.9-14.2,2.7-16.4c3-3.4,8.3-5,16.2-4.7v-5h-76.8v5
							c5.9,0.1,10,0.7,12.5,2c2.5,1.2,4.2,3,5.1,5.2s1.4,6.9,1.4,13.9v89.5h-18.7v13.7h18.7v9.6v6.5c0,13.3,4.9,24.4,14.6,33.3
							c9.8,8.9,22.9,13.3,39.6,13.3c11.4,0,19.8-2.1,25.3-6.3c5.5-4.2,8.2-8.9,8.2-14.1c0-4.1-1.7-7.7-5.1-10.8
							c-3.4-3.1-7.9-4.6-13.6-4.6c-4.8,0-8.6,1.2-11.4,3.7c-2.8,2.5-4.2,5.3-4.2,8.3c0,0.8,0.3,2.5,0.8,5.1c0.3,1.6,0.5,3,0.5,4.4
							c0,1.9-0.6,3.4-1.7,4.3c-1.5,1.4-3.3,2.1-5.4,2.1c-2.7,0-4.9-1.1-6.7-3.3c-1.8-2.2-2.7-5.8-2.7-10.7l0.1-24.4l0.1-16.6h19.4
							V13.4h-19.3V13.6z"/>
					</g>
					<g id="g314" transform="translate(981.8242,667.73)">
						<path id="path316" class="st1" d="M-168.7,13.6c-9.7,10.7-21.1,16.1-34.2,16.1c-15.7,0-29.5-6.4-41.2-19.2s-17.5-30-17.5-51.5
							c0-17.6,4-32.4,11.9-44.2c9.9-14.8,24.5-22.1,43.7-22.1c11.2,0,21,3,29.6,9c8.5,6,16.3,16.1,23.3,30.5l-4.7,3.1
							c-5.2-8.1-10.1-13.7-14.7-16.8c-4.6-3.1-9.6-4.7-15.3-4.7c-9.1,0-16.8,3.8-23.2,11.5c-8.4,10-13,23.6-13.9,40.7h71.8
							C-153.8-13.1-159,2.8-168.7,13.6 M-225.5-25.1v4.8c0,14.3,2.8,25.6,8.3,33.8c3.1,4.7,7.1,7.1,12,7.1c3.3,0,5.9-0.8,7.9-2.5
							c3.5-2.9,6-7.1,7.7-12.6c1.6-5.5,2.5-15.7,2.5-30.6H-225.5z"/>
					</g>
					<path id="path318" class="st1" d="M824.5,527H56.2v10.6h768.3V527H824.5z"/>
					<g id="g320" transform="translate(267.1836,665.6699)">
						<path id="path322" class="st1" d="M-168.8,13.6v-121.9c0,0-30.3,4.5-42.3,35.6c-2.1,7.5-13.2,29,2.1,56.4
							S-168.8,13.6-168.8,13.6"/>
					</g>
					<g id="g324" transform="translate(283.6143,543.6309)">
						<path id="path326" class="st1" d="M-168.7,13.6l0.1,121.8c0,0,30.3-4.6,42.3-35.6c2.1-7.5,13.3-29-2.1-56.4
							S-168.7,13.6-168.7,13.6"/>
					</g>
					<g id="g328" transform="translate(390.9287,665.7588)">
						<path id="path330" class="st1" d="M-168.7,13.6v-121.9c0,0-30.3,4.6-42.3,35.6c-2.1,7.5-13.3,29,2.1,56.4
							S-168.7,13.6-168.7,13.6"/>
					</g>
					<g id="g332" transform="translate(407.3706,543.7183)">
						<path id="path334" class="st1" d="M-168.7,13.6l0.1,121.8c0,0,30.3-4.6,42.3-35.6c2.1-7.5,13.2-29-2.1-56.4
							C-143.8,16.1-168.7,13.6-168.7,13.6"/>
					</g>
					<path id="path336" class="st1" d="M65.5,506.8h5.1v-38.3h-5.1V506.8z"/>
					<g id="g338" transform="translate(247.542,454.9634)">
						<path id="path340" class="st1" d="M-168.8,13.6v27.7h4.2v-4c2,3.1,5,4.6,8.8,4.6c1.7,0,3.2-0.3,4.6-0.9s2.5-1.4,3.1-2.4
							c0.7-1,1.2-2.1,1.5-3.5c0.2-0.9,0.3-2.4,0.3-4.6v-17h-4.7v16.9c0,1.9-0.2,3.3-0.6,4.3c-0.4,1-1,1.7-1.9,2.3
							c-0.9,0.5-2,0.8-3.3,0.8c-2,0-3.7-0.6-5.2-1.9s-2.2-3.7-2.2-7.2V13.6L-168.8,13.6L-168.8,13.6z"/>
					</g>
					<g id="g342" transform="translate(275.4551,463.2832)">
						<path id="path344" class="st1" d="M-168.7,13.6l4.6,0.7c0.2-1.9,1-3.3,2.2-4.3c1.2-1,2.9-1.5,5-1.5c2.2,0,3.8,0.5,4.8,1.3
							c1,0.9,1.6,1.9,1.6,3.1c0,1.1-0.4,1.9-1.4,2.5c-0.6,0.4-2.2,0.9-4.8,1.6c-3.5,0.9-5.9,1.6-7.2,2.2c-1.4,0.7-2.4,1.5-3,2.6
							c-0.7,1.1-1,2.4-1,3.7c0,1.2,0.3,2.4,0.9,3.4c0.6,1,1.3,1.9,2.3,2.6c0.7,0.5,1.7,1,3,1.3c1.3,0.4,2.6,0.6,4.1,0.6
							c2.2,0,4.1-0.3,5.8-0.9c1.7-0.6,2.9-1.5,3.7-2.5c0.8-1.1,1.3-2.5,1.6-4.3l-4.6-0.6c-0.2,1.4-0.8,2.5-1.8,3.3s-2.4,1.2-4.3,1.2
							c-2.2,0-3.7-0.4-4.6-1.1c-0.9-0.7-1.4-1.6-1.4-2.5c0-0.6,0.2-1.2,0.6-1.7s1-0.9,1.8-1.3c0.5-0.2,1.9-0.6,4.2-1.2
							c3.3-0.9,5.7-1.6,7-2.2c1.3-0.6,2.3-1.4,3.1-2.5c0.8-1.1,1.1-2.4,1.1-4s-0.5-3.1-1.4-4.4c-0.9-1.4-2.2-2.5-4-3.2
							c-1.7-0.8-3.7-1.1-5.9-1.1c-3.6,0-6.4,0.8-8.3,2.2C-167,8.4-168.2,10.6-168.7,13.6"/>
					</g>
					<g id="g346" transform="translate(314.3369,459.1699)">
						<path id="path348" class="st1" d="M-168.7,13.6l0.6-4.2c-1.3-0.3-2.5-0.4-3.6-0.4c-1.7,0-3,0.3-4,0.8c-0.9,0.5-1.6,1.3-2,2.1
							c-0.4,0.9-0.6,2.7-0.6,5.5v16h-3.4v3.7h3.4V44l4.7,2.8v-9.7h4.9v-3.7h-4.8V17.2c0-1.3,0.1-2.2,0.3-2.6
							c0.2-0.4,0.4-0.7,0.8-0.9c0.4-0.2,0.9-0.3,1.6-0.3C-170.3,13.4-169.6,13.4-168.7,13.6"/>
					</g>
					<path id="path350" class="st1" d="M150.3,496.2h4.7v-27.7h-4.7V496.2z M150.3,506.8h4.7v-5.3h-4.7V506.8z"/>
					<g id="g352" transform="translate(341.0986,459.1699)">
						<path id="path354" class="st1" d="M-168.7,13.6l0.6-4.2c-1.3-0.3-2.5-0.4-3.6-0.4c-1.7,0-3,0.3-4,0.8c-0.9,0.5-1.6,1.3-2,2.1
							c-0.4,0.9-0.6,2.7-0.6,5.5v16h-3.5v3.7h3.5V44l4.7,2.8v-9.7h4.9v-3.7h-4.8V17.2c0-1.3,0.1-2.2,0.2-2.6
							c0.2-0.4,0.4-0.7,0.8-0.9c0.4-0.2,0.9-0.3,1.6-0.3S-169.6,13.4-168.7,13.6"/>
					</g>
					<g id="g356" transform="translate(363.8936,454.9634)">
						<path id="path358" class="st1" d="M-168.7,13.6v4.1c-2.2-3.2-5.1-4.7-8.8-4.7c-1.7,0-3.2,0.3-4.6,0.9
							c-1.4,0.6-2.5,1.4-3.2,2.4s-1.2,2.1-1.4,3.5c-0.2,0.9-0.3,2.4-0.3,4.4v17.1h4.7V25.9c0-2.4,0.1-4.1,0.3-5
							c0.3-1.2,0.9-2.2,1.9-2.9s2.2-1.1,3.6-1.1c1.4,0,2.7,0.4,4,1.1c1.2,0.7,2.1,1.7,2.6,3s0.8,3.1,0.8,5.4v14.9h4.7V13.6H-168.7z"
							/>
					</g>
					<g id="g360" transform="translate(385.7485,459.1699)">
						<path id="path362" class="st1" d="M-168.7,13.6l0.6-4.2c-1.3-0.3-2.5-0.4-3.6-0.4c-1.7,0-3,0.3-4,0.8c-0.9,0.5-1.6,1.3-2,2.1
							c-0.4,0.9-0.6,2.7-0.6,5.5v16h-3.4v3.7h3.4V44l4.7,2.8v-9.7h4.9v-3.7h-4.8V17.2c0-1.3,0.1-2.2,0.2-2.6
							c0.2-0.4,0.4-0.7,0.8-0.9s0.9-0.3,1.6-0.3C-170.3,13.4-169.6,13.4-168.7,13.6"/>
					</g>
					<g id="g364" transform="translate(393.498,468.7959)">
						<path id="path366" class="st1" d="M-168.7,13.6c0-3.5,0.8-6.2,2.3-8c1.6-1.8,3.5-2.7,5.8-2.7c2.3,0,4.3,0.9,5.8,2.7
							s2.3,4.5,2.3,8.1c0,3.4-0.8,6-2.3,7.8c-1.6,1.8-3.5,2.6-5.8,2.6c-2.3,0-4.3-0.9-5.8-2.6S-168.7,17.1-168.7,13.6 M-173.6,13.6
							c0,5.1,1.4,8.9,4.3,11.4c2.4,2.1,5.3,3.1,8.7,3.1c3.8,0,6.9-1.3,9.4-3.7c2.4-2.5,3.6-6,3.6-10.4c0-3.6-0.5-6.4-1.6-8.4
							c-1.1-2-2.6-3.6-4.7-4.8c-2-1.1-4.3-1.7-6.7-1.7c-3.9,0-7,1.2-9.4,3.7C-172.4,5.3-173.6,8.9-173.6,13.6"/>
					</g>
					<g id="g368" transform="translate(438.1582,468.7803)">
						<path id="path370" class="st1" d="M-168.7,13.6c0-3.5,0.7-6.2,2.3-8c1.5-1.8,3.3-2.7,5.3-2.7c2.1,0,3.8,0.9,5.3,2.5
							c1.4,1.7,2.2,4.2,2.2,7.7c0,3.8-0.7,6.6-2.2,8.4c-1.5,1.8-3.3,2.7-5.4,2.7c-2.1,0-3.9-0.8-5.3-2.6
							C-168,19.9-168.7,17.2-168.7,13.6 M-153.8-0.3v3.5c-1.8-2.7-4.4-4.1-7.8-4.1c-2.2,0-4.3,0.6-6.1,1.8c-1.9,1.2-3.3,2.9-4.3,5.1
							c-1,2.2-1.5,4.7-1.5,7.5s0.5,5.3,1.4,7.5c0.9,2.3,2.3,4,4.1,5.2c1.9,1.2,3.9,1.8,6.2,1.8c1.7,0,3.2-0.4,4.5-1.1
							c1.3-0.7,2.4-1.6,3.2-2.8v13.8h4.7V-0.4h-4.4V-0.3z"/>
					</g>
					<g id="g372" transform="translate(468.2944,471.498)">
						<path id="path374" class="st1" d="M-168.7,13.6h15.6c-0.2,2.3-0.8,4.1-1.8,5.3c-1.5,1.8-3.5,2.7-5.9,2.7c-2.2,0-4-0.7-5.5-2.2
							C-167.7,17.9-168.5,16-168.7,13.6 M-153.2,6l4.8-0.6c-0.8-2.8-2.2-5-4.3-6.6c-2.1-1.6-4.7-2.4-8-2.4c-4.1,0-7.3,1.3-9.7,3.7
							c-2.4,2.5-3.6,6-3.6,10.5c0,4.7,1.2,8.3,3.6,10.9c2.4,2.6,5.5,3.9,9.4,3.9c3.7,0,6.7-1.3,9.1-3.8c2.4-2.5,3.5-6.1,3.5-10.6
							c0-0.3,0-0.7,0-1.3h-20.5c0.2-3.1,1-5.4,2.6-7c1.5-1.6,3.5-2.5,5.8-2.5c1.7,0,3.2,0.5,4.4,1.4C-154.9,2.5-153.9,4-153.2,6"/>
					</g>
					<path id="path376" class="st1" d="M325.8,506.8h4.7v-38.3h-4.7V506.8z"/>
					<g id="g378" transform="translate(549.2021,468.4004)">
						<path id="path380" class="st1" d="M-168.7,13.6l5.1-1.3c-1.1-4.2-3-7.3-5.7-9.5c-2.7-2.2-6.1-3.3-10.1-3.3
							c-4.1,0-7.5,0.9-10.1,2.5c-2.6,1.7-4.6,4.1-5.9,7.3s-2,6.6-2,10.3c0,4,0.8,7.5,2.3,10.4c1.5,3,3.7,5.2,6.5,6.8
							c2.8,1.5,5.9,2.3,9.3,2.3c3.8,0,7-1,9.7-2.9c2.6-2,4.4-4.7,5.5-8.2l-5-1.2c-0.9,2.8-2.2,4.8-3.9,6.1c-1.7,1.2-3.8,1.9-6.4,1.9
							c-2.9,0-5.4-0.7-7.4-2.1c-2-1.4-3.4-3.3-4.2-5.7s-1.2-4.8-1.2-7.4c0-3.3,0.5-6.1,1.4-8.5s2.4-4.2,4.4-5.4
							c2-1.2,4.2-1.8,6.5-1.8c2.8,0,5.2,0.8,7.2,2.5C-170.7,7.9-169.4,10.3-168.7,13.6"/>
					</g>
					<g id="g382" transform="translate(577.749,468.9102)">
						<path id="path384" class="st1" d="M-168.7,13.6c-1.7-0.7-4.3-1.3-7.7-1.8c-1.9-0.3-3.3-0.6-4.1-0.9c-0.8-0.3-1.4-0.8-1.9-1.5
							c-0.4-0.7-0.6-1.4-0.6-2.2c0-1.3,0.5-2.3,1.4-3.2c1-0.8,2.4-1.2,4.2-1.2s3.4,0.4,4.9,1.2c1.4,0.8,2.5,1.9,3.1,3.3
							c0.5,1.1,0.8,2.6,0.8,4.7L-168.7,13.6z M-168.3,3.1c-1.7-1.5-3.4-2.5-5-3.1c-1.6-0.6-3.4-0.9-5.2-0.9c-3,0-5.4,0.8-7.1,2.2
							c-1.6,1.5-2.5,3.4-2.5,5.7c0,1.3,0.3,2.6,0.9,3.7c0.6,1.1,1.4,2,2.4,2.7s2.1,1.2,3.4,1.6c0.9,0.2,2.3,0.5,4.2,0.7
							c3.8,0.5,6.6,1,8.4,1.6c0,0.7,0,1,0,1.2c0,1.9-0.5,3.2-1.3,4c-1.2,1-3,1.6-5.4,1.6c-2.2,0-3.9-0.4-4.9-1.2
							c-1.1-0.8-1.8-2.1-2.3-4.1l-4.7,0.6c0.4,2,1.1,3.5,2.1,4.8c1,1.2,2.3,2.2,4.2,2.8c1.8,0.6,3.9,1,6.3,1c2.4,0,4.3-0.3,5.8-0.8
							c1.5-0.6,2.6-1.3,3.3-2.1c0.7-0.8,1.2-1.9,1.5-3.2c0.1-0.8,0.2-2.2,0.2-4.3v-6.3c0-4.4,0.1-7.1,0.3-8.3
							c0.2-1.2,0.6-2.3,1.1-3.3h-4.9C-167.8,0.6-168.2,1.7-168.3,3.1"/>
					</g>
					<g id="g386" transform="translate(590.8437,454.9634)">
						<path id="path388" class="st1" d="M-168.7,13.6v24h-4.2v3.7h4.2v3c0,1.9,0.2,3.2,0.5,4.1c0.5,1.2,1.3,2.2,2.4,3
							c1.2,0.8,2.8,1.1,4.8,1.1c1.3,0,2.8-0.2,4.4-0.5l-0.7-4.1c-1,0.2-1.9,0.3-2.8,0.3c-1.4,0-2.4-0.3-3-0.9
							c-0.6-0.6-0.9-1.7-0.9-3.4v-2.6h5.4v-3.7h-5.4v-24L-168.7,13.6L-168.7,13.6z"/>
					</g>
					<g id="g390" transform="translate(612.1392,486.1294)">
						<path id="path392" class="st1" d="M-168.7,13.6l3.4,7.3h6.2l-5.7-7.3H-168.7z M-172.7-1.1h15.6c-0.2,2.3-0.8,4.1-1.8,5.3
							c-1.5,1.8-3.4,2.7-5.8,2.7c-2.2,0-4-0.7-5.5-2.2C-171.7,3.3-172.5,1.3-172.7-1.1 M-157.2-8.7l4.8-0.6c-0.8-2.8-2.2-5-4.3-6.6
							c-2.1-1.6-4.7-2.4-8-2.4c-4,0-7.3,1.3-9.6,3.7c-2.4,2.5-3.6,6-3.6,10.5c0,4.7,1.2,8.3,3.6,10.9c2.4,2.6,5.5,3.9,9.4,3.9
							c3.7,0,6.7-1.3,9.1-3.8c2.4-2.5,3.5-6.1,3.5-10.6c0-0.3,0-0.7,0-1.3h-20.6c0.2-3.1,1-5.4,2.6-7s3.5-2.5,5.8-2.5
							c1.7,0,3.2,0.5,4.4,1.4C-158.9-12.1-157.9-10.7-157.2-8.7"/>
					</g>
					<g id="g394" transform="translate(652.3965,468.7803)">
						<path id="path396" class="st1" d="M-168.7,13.6c0-3.5,0.7-6.2,2.2-8s3.3-2.7,5.3-2.7c2.1,0,3.8,0.9,5.3,2.5
							c1.4,1.7,2.2,4.2,2.2,7.7c0,3.8-0.7,6.6-2.2,8.4c-1.5,1.8-3.3,2.7-5.4,2.7c-2.1,0-3.9-0.8-5.3-2.6
							C-168,19.9-168.7,17.2-168.7,13.6 M-153.8-0.3v3.5c-1.8-2.7-4.4-4.1-7.8-4.1c-2.2,0-4.3,0.6-6.1,1.8c-1.8,1.2-3.3,2.9-4.3,5.1
							c-1,2.2-1.5,4.7-1.5,7.5s0.5,5.3,1.4,7.5c0.9,2.3,2.3,4,4.2,5.2c1.8,1.2,3.9,1.8,6.2,1.8c1.7,0,3.2-0.4,4.5-1.1
							c1.3-0.7,2.4-1.6,3.2-2.8v13.8h4.7V-0.4h-4.5V-0.3z"/>
					</g>
					<g id="g398" transform="translate(682.5537,471.498)">
						<path id="path400" class="st1" d="M-168.7,13.6h15.6c-0.2,2.3-0.8,4.1-1.8,5.3c-1.5,1.8-3.5,2.7-5.9,2.7c-2.2,0-4-0.7-5.5-2.2
							C-167.7,17.9-168.5,16-168.7,13.6 M-153.2,6l4.8-0.6c-0.8-2.8-2.2-5-4.3-6.6c-2.1-1.6-4.7-2.4-7.9-2.4c-4.1,0-7.3,1.3-9.7,3.7
							c-2.4,2.5-3.6,6-3.6,10.5c0,4.7,1.2,8.3,3.6,10.9c2.4,2.6,5.5,3.9,9.4,3.9c3.7,0,6.7-1.3,9.1-3.8c2.3-2.5,3.5-6.1,3.5-10.6
							c0-0.3,0-0.7,0-1.3h-20.6c0.2-3.1,1-5.4,2.6-7c1.6-1.6,3.5-2.5,5.8-2.5c1.8,0,3.2,0.5,4.5,1.4C-154.9,2.5-153.9,4-153.2,6"/>
					</g>
					<g id="g402" transform="translate(751.5645,468.4004)">
						<path id="path404" class="st1" d="M-168.7,13.6l5.1-1.3c-1.1-4.2-3-7.3-5.7-9.5c-2.7-2.2-6.1-3.3-10.1-3.3
							c-4.1,0-7.5,0.9-10.1,2.5c-2.6,1.7-4.6,4.1-5.9,7.3s-2,6.6-2,10.3c0,4,0.8,7.5,2.3,10.4c1.5,3,3.7,5.2,6.5,6.8
							c2.8,1.5,5.9,2.3,9.3,2.3c3.8,0,7.1-1,9.7-2.9c2.6-2,4.4-4.7,5.5-8.2l-5-1.2c-0.9,2.8-2.2,4.8-3.9,6.1
							c-1.7,1.2-3.8,1.9-6.4,1.9c-2.9,0-5.4-0.7-7.4-2.1c-2-1.4-3.4-3.3-4.2-5.7c-0.8-2.4-1.2-4.8-1.2-7.4c0-3.3,0.5-6.1,1.4-8.5
							c0.9-2.4,2.4-4.2,4.4-5.4s4.2-1.8,6.5-1.8c2.8,0,5.2,0.8,7.2,2.5C-170.7,7.9-169.4,10.3-168.7,13.6"/>
					</g>
					<g id="g406" transform="translate(765.4473,468.7959)">
						<path id="path408" class="st1" d="M-168.7,13.6c0-3.5,0.8-6.2,2.3-8s3.5-2.7,5.8-2.7s4.3,0.9,5.8,2.7s2.3,4.5,2.3,8.1
							c0,3.4-0.8,6-2.4,7.8c-1.5,1.8-3.5,2.6-5.8,2.6c-2.4,0-4.3-0.9-5.8-2.6C-167.9,19.8-168.7,17.1-168.7,13.6 M-173.5,13.6
							c0,5.1,1.4,8.9,4.3,11.4c2.4,2.1,5.3,3.1,8.7,3.1c3.8,0,6.9-1.3,9.4-3.7c2.4-2.5,3.6-6,3.6-10.4c0-3.6-0.5-6.4-1.6-8.4
							c-1.1-2-2.7-3.6-4.7-4.8c-2-1.1-4.3-1.7-6.7-1.7c-3.9,0-7,1.2-9.4,3.7C-172.3,5.3-173.5,8.9-173.5,13.6"/>
					</g>
					<g id="g410" transform="translate(790.2129,463.2832)">
						<path id="path412" class="st1" d="M-168.7,13.6l4.6,0.7c0.3-1.9,1-3.3,2.2-4.3s2.9-1.5,5-1.5c2.2,0,3.8,0.5,4.8,1.3
							c1,0.9,1.6,1.9,1.6,3.1c0,1.1-0.5,1.9-1.4,2.5c-0.6,0.4-2.2,0.9-4.8,1.6c-3.5,0.9-5.8,1.6-7.2,2.2c-1.3,0.7-2.3,1.5-3,2.6
							c-0.7,1.1-1,2.4-1,3.7c0,1.2,0.3,2.4,0.9,3.4c0.6,1,1.3,1.9,2.3,2.6c0.8,0.5,1.8,1,3,1.3c1.3,0.4,2.7,0.6,4.1,0.6
							c2.2,0,4.1-0.3,5.8-0.9c1.6-0.6,2.9-1.5,3.7-2.5c0.8-1.1,1.3-2.5,1.6-4.3l-4.6-0.6c-0.2,1.4-0.8,2.5-1.8,3.3s-2.5,1.2-4.3,1.2
							c-2.2,0-3.7-0.4-4.6-1.1c-0.9-0.7-1.4-1.6-1.4-2.5c0-0.6,0.2-1.2,0.6-1.7c0.4-0.5,1-0.9,1.8-1.3c0.5-0.2,1.8-0.6,4.2-1.2
							c3.3-0.9,5.7-1.6,7-2.2c1.3-0.6,2.3-1.4,3.1-2.5s1.1-2.4,1.1-4s-0.4-3.1-1.4-4.4c-0.9-1.4-2.3-2.5-4-3.2
							c-1.7-0.8-3.7-1.1-5.9-1.1c-3.6,0-6.4,0.8-8.3,2.2C-167,8.4-168.2,10.6-168.7,13.6"/>
					</g>
					<g id="g414" transform="translate(829.1211,459.1699)">
						<path id="path416" class="st1" d="M-168.7,13.6l0.6-4.2c-1.3-0.3-2.5-0.4-3.5-0.4c-1.7,0-3.1,0.3-4,0.8
							c-0.9,0.5-1.6,1.3-2,2.1c-0.4,0.9-0.6,2.7-0.6,5.5v16h-3.5v3.7h3.5V44l4.7,2.8v-9.7h4.8v-3.7h-4.8V17.2c0-1.3,0.1-2.2,0.2-2.6
							c0.2-0.4,0.4-0.7,0.8-0.9c0.4-0.2,0.9-0.3,1.6-0.3S-169.6,13.4-168.7,13.6"/>
					</g>
					<g id="g418" transform="translate(851.5215,468.9102)">
						<path id="path420" class="st1" d="M-168.7,13.6c-1.7-0.7-4.3-1.3-7.7-1.8c-1.9-0.3-3.3-0.6-4.1-0.9c-0.8-0.3-1.4-0.8-1.9-1.5
							c-0.4-0.7-0.7-1.4-0.7-2.2c0-1.3,0.5-2.3,1.4-3.2c0.9-0.8,2.3-1.2,4.2-1.2c1.8,0,3.4,0.4,4.9,1.2c1.4,0.8,2.5,1.9,3.1,3.3
							c0.5,1.1,0.8,2.6,0.8,4.7V13.6z M-168.3,3.1c-1.7-1.5-3.4-2.5-5-3.1c-1.6-0.6-3.3-0.9-5.2-0.9c-3.1,0-5.4,0.8-7.1,2.2
							c-1.6,1.5-2.5,3.4-2.5,5.7c0,1.3,0.3,2.6,0.9,3.7c0.6,1.1,1.4,2,2.4,2.7s2.1,1.2,3.4,1.6c0.9,0.2,2.3,0.5,4.2,0.7
							c3.8,0.5,6.6,1,8.4,1.6c0,0.7,0,1,0,1.2c0,1.9-0.4,3.2-1.3,4c-1.2,1-3,1.6-5.4,1.6c-2.2,0-3.8-0.4-4.9-1.2
							c-1.1-0.8-1.8-2.1-2.3-4.1l-4.7,0.6c0.4,2,1.1,3.5,2.1,4.8c1,1.2,2.4,2.2,4.2,2.8c1.8,0.6,3.9,1,6.3,1c2.4,0,4.3-0.3,5.8-0.8
							c1.5-0.6,2.6-1.3,3.3-2.1s1.2-1.9,1.5-3.2c0.2-0.8,0.2-2.2,0.2-4.3v-6.3c0-4.4,0.1-7.1,0.3-8.3s0.6-2.3,1.1-3.3h-4.8
							C-167.9,0.6-168.2,1.7-168.3,3.1"/>
					</g>
					<g id="g422" transform="translate(884.1641,476.3569)">
						<path id="path424" class="st1" d="M-168.7,13.6h10.9c2.3,0,4.1,0.2,5.4,0.7s2.3,1.2,3,2.3c0.7,1.1,1,2.2,1,3.4
							c0,1.8-0.7,3.3-1.9,4.5c-1.3,1.2-3.4,1.8-6.2,1.8h-12.2V13.6z M-173.8-7.8v38.3h17c3.4,0,6-0.3,7.8-1c1.8-0.7,3.2-1.9,4.2-3.6
							c1.1-1.7,1.6-3.7,1.6-5.8c0-2.7-0.9-5-2.6-6.9s-4.4-3.1-8.1-3.6c1.3-0.6,2.3-1.3,3-1.9c1.5-1.4,2.9-3,4.2-5.1l6.6-10.4h-6.3
							l-5,8c-1.5,2.3-2.7,4.1-3.7,5.3c-0.9,1.2-1.8,2.1-2.5,2.6c-0.8,0.5-1.5,0.8-2.3,1c-0.6,0.1-1.5,0.2-2.8,0.2h-6v-17L-173.8-7.8
							z"/>
					</g>
					<path id="path426" class="st1" d="M748.3,496.2h4.7v-27.7h-4.7V496.2z M748.3,506.8h4.7v-5.3h-4.7V506.8z"/>
					<g id="g428" transform="translate(947.1016,465.166)">
						<path id="path430" class="st1" d="M-168.7,13.6l4.6-0.6c-0.5-3.2-1.8-5.7-3.9-7.5s-4.7-2.7-7.7-2.7c-3.8,0-6.9,1.2-9.2,3.7
							s-3.5,6-3.5,10.7c0,3,0.5,5.6,1.5,7.9c1,2.2,2.5,3.9,4.5,5.1c2,1.1,4.2,1.7,6.6,1.7c3,0,5.5-0.8,7.4-2.3
							c1.9-1.5,3.1-3.7,3.7-6.6l-4.6-0.6c-0.4,1.9-1.2,3.3-2.3,4.2c-1.1,0.9-2.4,1.4-4,1.4c-2.3,0-4.3-0.9-5.8-2.5
							c-1.5-1.7-2.2-4.4-2.2-8.1c0-3.7,0.7-6.4,2.1-8.1c1.4-1.7,3.3-2.6,5.6-2.6c1.9,0,3.4,0.6,4.6,1.7
							C-169.8,9.4-169,11.2-168.7,13.6"/>
					</g>
					<g id="g432" transform="translate(973.4746,468.9102)">
						<path id="path434" class="st1" d="M-168.7,13.6c-1.7-0.7-4.3-1.3-7.7-1.8c-2-0.3-3.3-0.6-4.1-0.9c-0.8-0.3-1.4-0.8-1.8-1.5
							c-0.4-0.7-0.7-1.4-0.7-2.2c0-1.3,0.5-2.3,1.4-3.2c1-0.8,2.4-1.2,4.2-1.2s3.4,0.4,4.9,1.2c1.4,0.8,2.4,1.9,3.1,3.3
							c0.5,1.1,0.8,2.6,0.8,4.7L-168.7,13.6z M-168.3,3.1c-1.7-1.5-3.4-2.5-5-3.1c-1.6-0.6-3.3-0.9-5.2-0.9c-3.1,0-5.4,0.8-7.1,2.2
							c-1.6,1.5-2.5,3.4-2.5,5.7c0,1.3,0.3,2.6,0.9,3.7c0.6,1.1,1.4,2,2.4,2.7s2.1,1.2,3.4,1.6c0.9,0.2,2.3,0.5,4.2,0.7
							c3.8,0.5,6.6,1,8.4,1.6c0,0.7,0,1,0,1.2c0,1.9-0.4,3.2-1.3,4c-1.2,1-3,1.6-5.4,1.6c-2.2,0-3.8-0.4-4.9-1.2s-1.8-2.1-2.3-4.1
							l-4.7,0.6c0.4,2,1.1,3.5,2.1,4.8c1,1.2,2.4,2.2,4.2,2.8s3.9,1,6.3,1c2.4,0,4.3-0.3,5.8-0.8c1.5-0.6,2.6-1.3,3.3-2.1
							c0.7-0.8,1.2-1.9,1.5-3.2c0.2-0.8,0.3-2.2,0.3-4.3v-6.3c0-4.4,0.1-7.1,0.3-8.3s0.6-2.3,1.1-3.3h-4.8
							C-167.9,0.6-168.2,1.7-168.3,3.1"/>
					</g>
					<g id="g436" transform="translate(567.1475,555.4502)">
						<path id="path438" class="st1" d="M-168.7,13.6v-5h-97.9v5h6.2c5.4,0,9.8,1,13.1,2.9c2.4,1.3,4.2,3.5,5.5,6.7
							c1,2.2,1.5,8,1.5,17.5v123.6c0,9.6-0.5,15.6-1.5,18s-3.1,4.5-6.2,6.3c-3.1,1.8-7.3,2.7-12.5,2.7h-6.2v5h98v-5h-6.2
							c-5.4,0-9.8-1-13.1-2.9c-2.4-1.3-4.3-3.5-5.6-6.7c-1-2.2-1.5-8-1.5-17.5V40.6c0-9.6,0.5-15.6,1.6-18s3.1-4.5,6.2-6.3
							c3.1-1.8,7.2-2.7,12.4-2.7L-168.7,13.6L-168.7,13.6z"/>
					</g>
					<g id="g440" transform="translate(674.5605,583.9746)">
						<path id="path442" class="st1" d="M-168.7,13.6l4.3-3.3c-6.1-11.5-13.7-20-22.7-25.6c-9.1-5.6-18.7-8.4-29-8.4
							c-17.2,0-31,6.5-41.3,19.5c-10.3,13-15.5,28.6-15.5,46.9c0,17.6,4.7,33.1,14.2,46.5c11.4,16.2,27.1,24.2,47,24.2
							c13.4,0,24.1-3.4,32-10.1c7.9-6.7,11.8-14.3,11.8-22.6c0-5.3-1.6-9.5-4.8-12.6c-3.2-3.1-7.4-4.7-12.6-4.7
							c-5.5,0-10,1.8-13.6,5.4c-3.6,3.6-5.8,10.1-6.6,19.3c-0.6,5.8-1.9,9.9-4.1,12.2c-2.1,2.3-4.6,3.5-7.5,3.5
							c-4.5,0-8.2-2.3-11.4-7.1c-4.8-7.1-7.2-18-7.2-32.6c0-12.2,1.9-23.8,5.8-34.9c3.9-11.1,9.2-19.4,15.9-24.8c5.1-4,11.1-6,18-6
							c4.5,0,8.8,1.1,12.9,3.2C-179,3.7-174.2,7.7-168.7,13.6"/>
					</g>
					<g id="g444" transform="translate(759.5654,553.7593)">
						<path id="path446" class="st1" d="M-168.7,13.6c4.1-3.4,9.9-5.2,17.3-5.2c6.3,0,11.9,1.5,16.8,4.6c4.9,3.1,9.7,8.1,14.3,14.9
							l-4.2,3.4c-2.5-3.5-4.9-5.2-7.3-5.2c-1.2,0-2.2,0.4-3.1,1.1c-0.9,0.7-1.6,1.9-2.1,3.4c-0.5,1.5-0.7,5.2-0.7,11.2v50.3
							c0,13.9-0.6,22.9-1.9,26.7c-2.1,6.1-6.8,11.8-13.9,17c-7.2,5.2-16.9,7.8-29.2,7.8c-10.2,0-20-1.6-29.4-4.8
							c-9.4-3.2-16.8-7.9-22-13.9c-5.3-6-7.9-12.4-7.9-19c0-4.7,1.9-8.8,5.9-12.3c3.9-3.5,8.8-5.2,14.6-5.2c5.5,0,9.8,1.6,13.2,4.7
							c3.4,3.2,5.1,7,5.1,11.5c0,3.7-1.8,7.5-5.3,11.5c-2.6,2.9-3.9,5.2-3.9,7.2c0,2.2,1.2,4.1,3.6,5.8c3.9,2.7,8.8,4,14.9,4
							c3.7,0,7.1-0.9,10.1-2.8s5-4.1,6.1-6.6c1-2.5,1.6-8.7,1.6-18.4v-13c-28.6-13.1-47.1-23.7-55.6-31.6s-12.7-16.8-12.7-26.7
							c0-7.3,2.5-13.4,7.3-18.2c4.9-4.9,11.1-7.3,18.5-7.3c12.6,0,26.8,6.9,42.6,20.8C-175.4,22.2-172.8,17-168.7,13.6 M-192.4,31.7
							c-4.2,0-7.5,1.2-9.8,3.7c-3.1,3.2-4.6,7-4.6,11.2c0,5.1,1.8,10.1,5.4,15.1c5.5,7.5,13.8,14.5,25.1,21.1V39.4
							C-182.4,34.3-187.8,31.7-192.4,31.7"/>
					</g>
					<g id="g448" transform="translate(864.5557,666.083)">
						<path id="path450" class="st1" d="M-168.7,13.6l0.4-89.5c0-8.7,0.9-14.2,2.7-16.4c3-3.4,8.3-5,16.2-4.7v-5h-76.8v5
							c5.9,0.1,10,0.7,12.5,2c2.5,1.2,4.2,3,5.1,5.2s1.4,6.9,1.4,13.9v89.5h-18.7v13.7h18.7v9.6v6.5c0,13.3,4.9,24.4,14.6,33.3
							c9.8,8.9,22.9,13.3,39.6,13.3c11.4,0,19.8-2.1,25.3-6.3c5.5-4.2,8.2-8.9,8.2-14.1c0-4.1-1.7-7.7-5.1-10.8
							c-3.4-3.1-7.9-4.6-13.6-4.6c-4.8,0-8.6,1.2-11.4,3.7c-2.8,2.5-4.2,5.3-4.2,8.3c0,0.8,0.3,2.5,0.8,5.1c0.3,1.6,0.5,3,0.5,4.4
							c0,1.9-0.6,3.4-1.7,4.3c-1.5,1.4-3.3,2.1-5.4,2.1c-2.7,0-4.9-1.1-6.7-3.3c-1.8-2.2-2.7-5.8-2.7-10.7l0.1-24.4l0.1-16.6h19.4
							V13.4h-19.3V13.6z"/>
					</g>
					<g id="g452" transform="translate(981.8242,667.73)">
						<path id="path454" class="st1" d="M-168.7,13.6c-9.7,10.7-21.1,16.1-34.2,16.1c-15.7,0-29.5-6.4-41.2-19.2s-17.5-30-17.5-51.5
							c0-17.6,4-32.4,11.9-44.2c9.9-14.8,24.5-22.1,43.7-22.1c11.2,0,21,3,29.6,9c8.5,6,16.3,16.1,23.3,30.5l-4.7,3.1
							c-5.2-8.1-10.1-13.7-14.7-16.8c-4.6-3.1-9.6-4.7-15.3-4.7c-9.1,0-16.8,3.8-23.2,11.5c-8.4,10-13,23.6-13.9,40.7h71.8
							C-153.8-13.1-159,2.8-168.7,13.6 M-225.5-25.1v4.8c0,14.3,2.8,25.6,8.3,33.8c3.1,4.7,7.1,7.1,12,7.1c3.3,0,5.9-0.8,7.9-2.5
							c3.5-2.9,6-7.1,7.7-12.6c1.6-5.5,2.5-15.7,2.5-30.6H-225.5z"/>
					</g>
					<path id="path456" class="st1" d="M824.5,527H56.2v10.6h768.3V527H824.5z"/>
					<g id="g458" transform="translate(267.1836,665.6699)">
						<path id="path460" class="st1" d="M-168.8,13.6v-121.9c0,0-30.3,4.5-42.3,35.6c-2.1,7.5-13.2,29,2.1,56.4
							S-168.8,13.6-168.8,13.6"/>
					</g>
					<g id="g462" transform="translate(283.6143,543.6309)">
						<path id="path464" class="st1" d="M-168.7,13.6l0.1,121.8c0,0,30.3-4.6,42.3-35.6c2.1-7.5,13.3-29-2.1-56.4
							S-168.7,13.6-168.7,13.6"/>
					</g>
					<g id="g466" transform="translate(390.9287,665.7588)">
						<path id="path468" class="st1" d="M-168.7,13.6v-121.9c0,0-30.3,4.6-42.3,35.6c-2.1,7.5-13.3,29,2.1,56.4
							S-168.7,13.6-168.7,13.6"/>
					</g>
					<g id="g470" transform="translate(407.3706,543.7183)">
						<path id="path472" class="st1" d="M-168.7,13.6l0.1,121.8c0,0,30.3-4.6,42.3-35.6c2.1-7.5,13.2-29-2.1-56.4
							C-143.8,16.1-168.7,13.6-168.7,13.6"/>
					</g>
					<path id="path474" class="st1" d="M65.5,506.8h5.1v-38.3h-5.1V506.8z"/>
					<g id="g476" transform="translate(247.542,454.9634)">
						<path id="path478" class="st1" d="M-168.8,13.6v27.7h4.2v-4c2,3.1,5,4.6,8.8,4.6c1.7,0,3.2-0.3,4.6-0.9s2.5-1.4,3.1-2.4
							c0.7-1,1.2-2.1,1.5-3.5c0.2-0.9,0.3-2.4,0.3-4.6v-17h-4.7v16.9c0,1.9-0.2,3.3-0.6,4.3c-0.4,1-1,1.7-1.9,2.3
							c-0.9,0.5-2,0.8-3.3,0.8c-2,0-3.7-0.6-5.2-1.9s-2.2-3.7-2.2-7.2V13.6L-168.8,13.6L-168.8,13.6z"/>
					</g>
					<g id="g480" transform="translate(275.4551,463.2832)">
						<path id="path482" class="st1" d="M-168.7,13.6l4.6,0.7c0.2-1.9,1-3.3,2.2-4.3c1.2-1,2.9-1.5,5-1.5c2.2,0,3.8,0.5,4.8,1.3
							c1,0.9,1.6,1.9,1.6,3.1c0,1.1-0.4,1.9-1.4,2.5c-0.6,0.4-2.2,0.9-4.8,1.6c-3.5,0.9-5.9,1.6-7.2,2.2c-1.4,0.7-2.4,1.5-3,2.6
							c-0.7,1.1-1,2.4-1,3.7c0,1.2,0.3,2.4,0.9,3.4c0.6,1,1.3,1.9,2.3,2.6c0.7,0.5,1.7,1,3,1.3c1.3,0.4,2.6,0.6,4.1,0.6
							c2.2,0,4.1-0.3,5.8-0.9c1.7-0.6,2.9-1.5,3.7-2.5c0.8-1.1,1.3-2.5,1.6-4.3l-4.6-0.6c-0.2,1.4-0.8,2.5-1.8,3.3s-2.4,1.2-4.3,1.2
							c-2.2,0-3.7-0.4-4.6-1.1c-0.9-0.7-1.4-1.6-1.4-2.5c0-0.6,0.2-1.2,0.6-1.7s1-0.9,1.8-1.3c0.5-0.2,1.9-0.6,4.2-1.2
							c3.3-0.9,5.7-1.6,7-2.2c1.3-0.6,2.3-1.4,3.1-2.5c0.8-1.1,1.1-2.4,1.1-4s-0.5-3.1-1.4-4.4c-0.9-1.4-2.2-2.5-4-3.2
							c-1.7-0.8-3.7-1.1-5.9-1.1c-3.6,0-6.4,0.8-8.3,2.2C-167,8.4-168.2,10.6-168.7,13.6"/>
					</g>
					<g id="g484" transform="translate(314.3369,459.1699)">
						<path id="path486" class="st1" d="M-168.7,13.6l0.6-4.2c-1.3-0.3-2.5-0.4-3.6-0.4c-1.7,0-3,0.3-4,0.8c-0.9,0.5-1.6,1.3-2,2.1
							c-0.4,0.9-0.6,2.7-0.6,5.5v16h-3.4v3.7h3.4V44l4.7,2.8v-9.7h4.9v-3.7h-4.8V17.2c0-1.3,0.1-2.2,0.3-2.6
							c0.2-0.4,0.4-0.7,0.8-0.9c0.4-0.2,0.9-0.3,1.6-0.3C-170.3,13.4-169.6,13.4-168.7,13.6"/>
					</g>
					<path id="path488" class="st1" d="M150.3,496.2h4.7v-27.7h-4.7V496.2z M150.3,506.8h4.7v-5.3h-4.7V506.8z"/>
					<g id="g490" transform="translate(341.0986,459.1699)">
						<path id="path492" class="st1" d="M-168.7,13.6l0.6-4.2c-1.3-0.3-2.5-0.4-3.6-0.4c-1.7,0-3,0.3-4,0.8c-0.9,0.5-1.6,1.3-2,2.1
							c-0.4,0.9-0.6,2.7-0.6,5.5v16h-3.5v3.7h3.5V44l4.7,2.8v-9.7h4.9v-3.7h-4.8V17.2c0-1.3,0.1-2.2,0.2-2.6
							c0.2-0.4,0.4-0.7,0.8-0.9c0.4-0.2,0.9-0.3,1.6-0.3S-169.6,13.4-168.7,13.6"/>
					</g>
					<g id="g494" transform="translate(363.8936,454.9634)">
						<path id="path496" class="st1" d="M-168.7,13.6v4.1c-2.2-3.2-5.1-4.7-8.8-4.7c-1.7,0-3.2,0.3-4.6,0.9
							c-1.4,0.6-2.5,1.4-3.2,2.4s-1.2,2.1-1.4,3.5c-0.2,0.9-0.3,2.4-0.3,4.4v17.1h4.7V25.9c0-2.4,0.1-4.1,0.3-5
							c0.3-1.2,0.9-2.2,1.9-2.9s2.2-1.1,3.6-1.1c1.4,0,2.7,0.4,4,1.1c1.2,0.7,2.1,1.7,2.6,3s0.8,3.1,0.8,5.4v14.9h4.7V13.6H-168.7z"
							/>
					</g>
					<g id="g498" transform="translate(385.7485,459.1699)">
						<path id="path500" class="st1" d="M-168.7,13.6l0.6-4.2c-1.3-0.3-2.5-0.4-3.6-0.4c-1.7,0-3,0.3-4,0.8c-0.9,0.5-1.6,1.3-2,2.1
							c-0.4,0.9-0.6,2.7-0.6,5.5v16h-3.4v3.7h3.4V44l4.7,2.8v-9.7h4.9v-3.7h-4.8V17.2c0-1.3,0.1-2.2,0.2-2.6
							c0.2-0.4,0.4-0.7,0.8-0.9s0.9-0.3,1.6-0.3C-170.3,13.4-169.6,13.4-168.7,13.6"/>
					</g>
					<g id="g502" transform="translate(393.498,468.7959)">
						<path id="path504" class="st1" d="M-168.7,13.6c0-3.5,0.8-6.2,2.3-8c1.6-1.8,3.5-2.7,5.8-2.7c2.3,0,4.3,0.9,5.8,2.7
							s2.3,4.5,2.3,8.1c0,3.4-0.8,6-2.3,7.8c-1.6,1.8-3.5,2.6-5.8,2.6c-2.3,0-4.3-0.9-5.8-2.6S-168.7,17.1-168.7,13.6 M-173.6,13.6
							c0,5.1,1.4,8.9,4.3,11.4c2.4,2.1,5.3,3.1,8.7,3.1c3.8,0,6.9-1.3,9.4-3.7c2.4-2.5,3.6-6,3.6-10.4c0-3.6-0.5-6.4-1.6-8.4
							c-1.1-2-2.6-3.6-4.7-4.8c-2-1.1-4.3-1.7-6.7-1.7c-3.9,0-7,1.2-9.4,3.7C-172.4,5.3-173.6,8.9-173.6,13.6"/>
					</g>
					<g id="g506" transform="translate(438.1582,468.7803)">
						<path id="path508" class="st1" d="M-168.7,13.6c0-3.5,0.7-6.2,2.3-8c1.5-1.8,3.3-2.7,5.3-2.7c2.1,0,3.8,0.9,5.3,2.5
							c1.4,1.7,2.2,4.2,2.2,7.7c0,3.8-0.7,6.6-2.2,8.4c-1.5,1.8-3.3,2.7-5.4,2.7c-2.1,0-3.9-0.8-5.3-2.6
							C-168,19.9-168.7,17.2-168.7,13.6 M-153.8-0.3v3.5c-1.8-2.7-4.4-4.1-7.8-4.1c-2.2,0-4.3,0.6-6.1,1.8c-1.9,1.2-3.3,2.9-4.3,5.1
							c-1,2.2-1.5,4.7-1.5,7.5s0.5,5.3,1.4,7.5c0.9,2.3,2.3,4,4.1,5.2c1.9,1.2,3.9,1.8,6.2,1.8c1.7,0,3.2-0.4,4.5-1.1
							c1.3-0.7,2.4-1.6,3.2-2.8v13.8h4.7V-0.4h-4.4V-0.3z"/>
					</g>
					<g id="g510" transform="translate(468.2944,471.498)">
						<path id="path512" class="st1" d="M-168.7,13.6h15.6c-0.2,2.3-0.8,4.1-1.8,5.3c-1.5,1.8-3.5,2.7-5.9,2.7c-2.2,0-4-0.7-5.5-2.2
							C-167.7,17.9-168.5,16-168.7,13.6 M-153.2,6l4.8-0.6c-0.8-2.8-2.2-5-4.3-6.6c-2.1-1.6-4.7-2.4-8-2.4c-4.1,0-7.3,1.3-9.7,3.7
							c-2.4,2.5-3.6,6-3.6,10.5c0,4.7,1.2,8.3,3.6,10.9c2.4,2.6,5.5,3.9,9.4,3.9c3.7,0,6.7-1.3,9.1-3.8c2.4-2.5,3.5-6.1,3.5-10.6
							c0-0.3,0-0.7,0-1.3h-20.5c0.2-3.1,1-5.4,2.6-7c1.5-1.6,3.5-2.5,5.8-2.5c1.7,0,3.2,0.5,4.4,1.4C-154.9,2.5-153.9,4-153.2,6"/>
					</g>
					<path id="path514" class="st1" d="M325.8,506.8h4.7v-38.3h-4.7V506.8z"/>
					<g id="g516" transform="translate(549.2021,468.4004)">
						<path id="path518" class="st1" d="M-168.7,13.6l5.1-1.3c-1.1-4.2-3-7.3-5.7-9.5c-2.7-2.2-6.1-3.3-10.1-3.3
							c-4.1,0-7.5,0.9-10.1,2.5c-2.6,1.7-4.6,4.1-5.9,7.3s-2,6.6-2,10.3c0,4,0.8,7.5,2.3,10.4c1.5,3,3.7,5.2,6.5,6.8
							c2.8,1.5,5.9,2.3,9.3,2.3c3.8,0,7-1,9.7-2.9c2.6-2,4.4-4.7,5.5-8.2l-5-1.2c-0.9,2.8-2.2,4.8-3.9,6.1c-1.7,1.2-3.8,1.9-6.4,1.9
							c-2.9,0-5.4-0.7-7.4-2.1c-2-1.4-3.4-3.3-4.2-5.7s-1.2-4.8-1.2-7.4c0-3.3,0.5-6.1,1.4-8.5s2.4-4.2,4.4-5.4
							c2-1.2,4.2-1.8,6.5-1.8c2.8,0,5.2,0.8,7.2,2.5C-170.7,7.9-169.4,10.3-168.7,13.6"/>
					</g>
					<g id="g520" transform="translate(577.749,468.9102)">
						<path id="path522" class="st1" d="M-168.7,13.6c-1.7-0.7-4.3-1.3-7.7-1.8c-1.9-0.3-3.3-0.6-4.1-0.9c-0.8-0.3-1.4-0.8-1.9-1.5
							c-0.4-0.7-0.6-1.4-0.6-2.2c0-1.3,0.5-2.3,1.4-3.2c1-0.8,2.4-1.2,4.2-1.2s3.4,0.4,4.9,1.2c1.4,0.8,2.5,1.9,3.1,3.3
							c0.5,1.1,0.8,2.6,0.8,4.7L-168.7,13.6z M-168.3,3.1c-1.7-1.5-3.4-2.5-5-3.1c-1.6-0.6-3.4-0.9-5.2-0.9c-3,0-5.4,0.8-7.1,2.2
							c-1.6,1.5-2.5,3.4-2.5,5.7c0,1.3,0.3,2.6,0.9,3.7c0.6,1.1,1.4,2,2.4,2.7s2.1,1.2,3.4,1.6c0.9,0.2,2.3,0.5,4.2,0.7
							c3.8,0.5,6.6,1,8.4,1.6c0,0.7,0,1,0,1.2c0,1.9-0.5,3.2-1.3,4c-1.2,1-3,1.6-5.4,1.6c-2.2,0-3.9-0.4-4.9-1.2
							c-1.1-0.8-1.8-2.1-2.3-4.1l-4.7,0.6c0.4,2,1.1,3.5,2.1,4.8c1,1.2,2.3,2.2,4.2,2.8c1.8,0.6,3.9,1,6.3,1c2.4,0,4.3-0.3,5.8-0.8
							c1.5-0.6,2.6-1.3,3.3-2.1c0.7-0.8,1.2-1.9,1.5-3.2c0.1-0.8,0.2-2.2,0.2-4.3v-6.3c0-4.4,0.1-7.1,0.3-8.3
							c0.2-1.2,0.6-2.3,1.1-3.3h-4.9C-167.8,0.6-168.2,1.7-168.3,3.1"/>
					</g>
					<g id="g524" transform="translate(590.8437,454.9634)">
						<path id="path526" class="st1" d="M-168.7,13.6v24h-4.2v3.7h4.2v3c0,1.9,0.2,3.2,0.5,4.1c0.5,1.2,1.3,2.2,2.4,3
							c1.2,0.8,2.8,1.1,4.8,1.1c1.3,0,2.8-0.2,4.4-0.5l-0.7-4.1c-1,0.2-1.9,0.3-2.8,0.3c-1.4,0-2.4-0.3-3-0.9
							c-0.6-0.6-0.9-1.7-0.9-3.4v-2.6h5.4v-3.7h-5.4v-24L-168.7,13.6L-168.7,13.6z"/>
					</g>
					<g id="g528" transform="translate(612.1392,486.1294)">
						<path id="path530" class="st1" d="M-168.7,13.6l3.4,7.3h6.2l-5.7-7.3H-168.7z M-172.7-1.1h15.6c-0.2,2.3-0.8,4.1-1.8,5.3
							c-1.5,1.8-3.4,2.7-5.8,2.7c-2.2,0-4-0.7-5.5-2.2C-171.7,3.3-172.5,1.3-172.7-1.1 M-157.2-8.7l4.8-0.6c-0.8-2.8-2.2-5-4.3-6.6
							c-2.1-1.6-4.7-2.4-8-2.4c-4,0-7.3,1.3-9.6,3.7c-2.4,2.5-3.6,6-3.6,10.5c0,4.7,1.2,8.3,3.6,10.9c2.4,2.6,5.5,3.9,9.4,3.9
							c3.7,0,6.7-1.3,9.1-3.8c2.4-2.5,3.5-6.1,3.5-10.6c0-0.3,0-0.7,0-1.3h-20.6c0.2-3.1,1-5.4,2.6-7s3.5-2.5,5.8-2.5
							c1.7,0,3.2,0.5,4.4,1.4C-158.9-12.1-157.9-10.7-157.2-8.7"/>
					</g>
					<g id="g532" transform="translate(652.3965,468.7803)">
						<path id="path534" class="st1" d="M-168.7,13.6c0-3.5,0.7-6.2,2.2-8s3.3-2.7,5.3-2.7c2.1,0,3.8,0.9,5.3,2.5
							c1.4,1.7,2.2,4.2,2.2,7.7c0,3.8-0.7,6.6-2.2,8.4c-1.5,1.8-3.3,2.7-5.4,2.7c-2.1,0-3.9-0.8-5.3-2.6
							C-168,19.9-168.7,17.2-168.7,13.6 M-153.8-0.3v3.5c-1.8-2.7-4.4-4.1-7.8-4.1c-2.2,0-4.3,0.6-6.1,1.8c-1.8,1.2-3.3,2.9-4.3,5.1
							c-1,2.2-1.5,4.7-1.5,7.5s0.5,5.3,1.4,7.5c0.9,2.3,2.3,4,4.2,5.2c1.8,1.2,3.9,1.8,6.2,1.8c1.7,0,3.2-0.4,4.5-1.1
							c1.3-0.7,2.4-1.6,3.2-2.8v13.8h4.7V-0.4h-4.5V-0.3z"/>
					</g>
					<g id="g536" transform="translate(682.5537,471.498)">
						<path id="path538" class="st1" d="M-168.7,13.6h15.6c-0.2,2.3-0.8,4.1-1.8,5.3c-1.5,1.8-3.5,2.7-5.9,2.7c-2.2,0-4-0.7-5.5-2.2
							C-167.7,17.9-168.5,16-168.7,13.6 M-153.2,6l4.8-0.6c-0.8-2.8-2.2-5-4.3-6.6c-2.1-1.6-4.7-2.4-7.9-2.4c-4.1,0-7.3,1.3-9.7,3.7
							c-2.4,2.5-3.6,6-3.6,10.5c0,4.7,1.2,8.3,3.6,10.9c2.4,2.6,5.5,3.9,9.4,3.9c3.7,0,6.7-1.3,9.1-3.8c2.3-2.5,3.5-6.1,3.5-10.6
							c0-0.3,0-0.7,0-1.3h-20.6c0.2-3.1,1-5.4,2.6-7c1.6-1.6,3.5-2.5,5.8-2.5c1.8,0,3.2,0.5,4.5,1.4C-154.9,2.5-153.9,4-153.2,6"/>
					</g>
					<g id="g540" transform="translate(751.5645,468.4004)">
						<path id="path542" class="st1" d="M-168.7,13.6l5.1-1.3c-1.1-4.2-3-7.3-5.7-9.5c-2.7-2.2-6.1-3.3-10.1-3.3
							c-4.1,0-7.5,0.9-10.1,2.5c-2.6,1.7-4.6,4.1-5.9,7.3s-2,6.6-2,10.3c0,4,0.8,7.5,2.3,10.4c1.5,3,3.7,5.2,6.5,6.8
							c2.8,1.5,5.9,2.3,9.3,2.3c3.8,0,7.1-1,9.7-2.9c2.6-2,4.4-4.7,5.5-8.2l-5-1.2c-0.9,2.8-2.2,4.8-3.9,6.1
							c-1.7,1.2-3.8,1.9-6.4,1.9c-2.9,0-5.4-0.7-7.4-2.1c-2-1.4-3.4-3.3-4.2-5.7c-0.8-2.4-1.2-4.8-1.2-7.4c0-3.3,0.5-6.1,1.4-8.5
							c0.9-2.4,2.4-4.2,4.4-5.4s4.2-1.8,6.5-1.8c2.8,0,5.2,0.8,7.2,2.5C-170.7,7.9-169.4,10.3-168.7,13.6"/>
					</g>
					<g id="g544" transform="translate(765.4473,468.7959)">
						<path id="path546" class="st1" d="M-168.7,13.6c0-3.5,0.8-6.2,2.3-8s3.5-2.7,5.8-2.7s4.3,0.9,5.8,2.7s2.3,4.5,2.3,8.1
							c0,3.4-0.8,6-2.4,7.8c-1.5,1.8-3.5,2.6-5.8,2.6c-2.4,0-4.3-0.9-5.8-2.6C-167.9,19.8-168.7,17.1-168.7,13.6 M-173.5,13.6
							c0,5.1,1.4,8.9,4.3,11.4c2.4,2.1,5.3,3.1,8.7,3.1c3.8,0,6.9-1.3,9.4-3.7c2.4-2.5,3.6-6,3.6-10.4c0-3.6-0.5-6.4-1.6-8.4
							c-1.1-2-2.7-3.6-4.7-4.8c-2-1.1-4.3-1.7-6.7-1.7c-3.9,0-7,1.2-9.4,3.7C-172.3,5.3-173.5,8.9-173.5,13.6"/>
					</g>
					<g id="g548" transform="translate(790.2129,463.2832)">
						<path id="path550" class="st1" d="M-168.7,13.6l4.6,0.7c0.3-1.9,1-3.3,2.2-4.3s2.9-1.5,5-1.5c2.2,0,3.8,0.5,4.8,1.3
							c1,0.9,1.6,1.9,1.6,3.1c0,1.1-0.5,1.9-1.4,2.5c-0.6,0.4-2.2,0.9-4.8,1.6c-3.5,0.9-5.8,1.6-7.2,2.2c-1.3,0.7-2.3,1.5-3,2.6
							c-0.7,1.1-1,2.4-1,3.7c0,1.2,0.3,2.4,0.9,3.4c0.6,1,1.3,1.9,2.3,2.6c0.8,0.5,1.8,1,3,1.3c1.3,0.4,2.7,0.6,4.1,0.6
							c2.2,0,4.1-0.3,5.8-0.9c1.6-0.6,2.9-1.5,3.7-2.5c0.8-1.1,1.3-2.5,1.6-4.3l-4.6-0.6c-0.2,1.4-0.8,2.5-1.8,3.3s-2.5,1.2-4.3,1.2
							c-2.2,0-3.7-0.4-4.6-1.1c-0.9-0.7-1.4-1.6-1.4-2.5c0-0.6,0.2-1.2,0.6-1.7c0.4-0.5,1-0.9,1.8-1.3c0.5-0.2,1.8-0.6,4.2-1.2
							c3.3-0.9,5.7-1.6,7-2.2c1.3-0.6,2.3-1.4,3.1-2.5s1.1-2.4,1.1-4s-0.4-3.1-1.4-4.4c-0.9-1.4-2.3-2.5-4-3.2
							c-1.7-0.8-3.7-1.1-5.9-1.1c-3.6,0-6.4,0.8-8.3,2.2C-167,8.4-168.2,10.6-168.7,13.6"/>
					</g>
					<g id="g552" transform="translate(829.1211,459.1699)">
						<path id="path554" class="st1" d="M-168.7,13.6l0.6-4.2c-1.3-0.3-2.5-0.4-3.5-0.4c-1.7,0-3.1,0.3-4,0.8
							c-0.9,0.5-1.6,1.3-2,2.1c-0.4,0.9-0.6,2.7-0.6,5.5v16h-3.5v3.7h3.5V44l4.7,2.8v-9.7h4.8v-3.7h-4.8V17.2c0-1.3,0.1-2.2,0.2-2.6
							c0.2-0.4,0.4-0.7,0.8-0.9c0.4-0.2,0.9-0.3,1.6-0.3S-169.6,13.4-168.7,13.6"/>
					</g>
					<g id="g556" transform="translate(851.5215,468.9102)">
						<path id="path558" class="st1" d="M-168.7,13.6c-1.7-0.7-4.3-1.3-7.7-1.8c-1.9-0.3-3.3-0.6-4.1-0.9c-0.8-0.3-1.4-0.8-1.9-1.5
							c-0.4-0.7-0.7-1.4-0.7-2.2c0-1.3,0.5-2.3,1.4-3.2c0.9-0.8,2.3-1.2,4.2-1.2c1.8,0,3.4,0.4,4.9,1.2c1.4,0.8,2.5,1.9,3.1,3.3
							c0.5,1.1,0.8,2.6,0.8,4.7V13.6z M-168.3,3.1c-1.7-1.5-3.4-2.5-5-3.1c-1.6-0.6-3.3-0.9-5.2-0.9c-3.1,0-5.4,0.8-7.1,2.2
							c-1.6,1.5-2.5,3.4-2.5,5.7c0,1.3,0.3,2.6,0.9,3.7c0.6,1.1,1.4,2,2.4,2.7s2.1,1.2,3.4,1.6c0.9,0.2,2.3,0.5,4.2,0.7
							c3.8,0.5,6.6,1,8.4,1.6c0,0.7,0,1,0,1.2c0,1.9-0.4,3.2-1.3,4c-1.2,1-3,1.6-5.4,1.6c-2.2,0-3.8-0.4-4.9-1.2
							c-1.1-0.8-1.8-2.1-2.3-4.1l-4.7,0.6c0.4,2,1.1,3.5,2.1,4.8c1,1.2,2.4,2.2,4.2,2.8c1.8,0.6,3.9,1,6.3,1c2.4,0,4.3-0.3,5.8-0.8
							c1.5-0.6,2.6-1.3,3.3-2.1s1.2-1.9,1.5-3.2c0.2-0.8,0.2-2.2,0.2-4.3v-6.3c0-4.4,0.1-7.1,0.3-8.3s0.6-2.3,1.1-3.3h-4.8
							C-167.9,0.6-168.2,1.7-168.3,3.1"/>
					</g>
					<g id="g560" transform="translate(884.1641,476.3569)">
						<path id="path562" class="st1" d="M-168.7,13.6h10.9c2.3,0,4.1,0.2,5.4,0.7s2.3,1.2,3,2.3c0.7,1.1,1,2.2,1,3.4
							c0,1.8-0.7,3.3-1.9,4.5c-1.3,1.2-3.4,1.8-6.2,1.8h-12.2V13.6z M-173.8-7.8v38.3h17c3.4,0,6-0.3,7.8-1c1.8-0.7,3.2-1.9,4.2-3.6
							c1.1-1.7,1.6-3.7,1.6-5.8c0-2.7-0.9-5-2.6-6.9s-4.4-3.1-8.1-3.6c1.3-0.6,2.3-1.3,3-1.9c1.5-1.4,2.9-3,4.2-5.1l6.6-10.4h-6.3
							l-5,8c-1.5,2.3-2.7,4.1-3.7,5.3c-0.9,1.2-1.8,2.1-2.5,2.6c-0.8,0.5-1.5,0.8-2.3,1c-0.6,0.1-1.5,0.2-2.8,0.2h-6v-17L-173.8-7.8
							z"/>
					</g>
					<path id="path564" class="st1" d="M748.3,496.2h4.7v-27.7h-4.7V496.2z M748.3,506.8h4.7v-5.3h-4.7V506.8z"/>
					<g id="g566" transform="translate(947.1016,465.166)">
						<path id="path568" class="st1" d="M-168.7,13.6l4.6-0.6c-0.5-3.2-1.8-5.7-3.9-7.5s-4.7-2.7-7.7-2.7c-3.8,0-6.9,1.2-9.2,3.7
							s-3.5,6-3.5,10.7c0,3,0.5,5.6,1.5,7.9c1,2.2,2.5,3.9,4.5,5.1c2,1.1,4.2,1.7,6.6,1.7c3,0,5.5-0.8,7.4-2.3
							c1.9-1.5,3.1-3.7,3.7-6.6l-4.6-0.6c-0.4,1.9-1.2,3.3-2.3,4.2c-1.1,0.9-2.4,1.4-4,1.4c-2.3,0-4.3-0.9-5.8-2.5
							c-1.5-1.7-2.2-4.4-2.2-8.1c0-3.7,0.7-6.4,2.1-8.1c1.4-1.7,3.3-2.6,5.6-2.6c1.9,0,3.4,0.6,4.6,1.7
							C-169.8,9.4-169,11.2-168.7,13.6"/>
					</g>
					<g id="g570" transform="translate(973.4746,468.9102)">
						<path id="path572" class="st1" d="M-168.7,13.6c-1.7-0.7-4.3-1.3-7.7-1.8c-2-0.3-3.3-0.6-4.1-0.9c-0.8-0.3-1.4-0.8-1.8-1.5
							c-0.4-0.7-0.7-1.4-0.7-2.2c0-1.3,0.5-2.3,1.4-3.2c1-0.8,2.4-1.2,4.2-1.2s3.4,0.4,4.9,1.2c1.4,0.8,2.4,1.9,3.1,3.3
							c0.5,1.1,0.8,2.6,0.8,4.7L-168.7,13.6z M-168.3,3.1c-1.7-1.5-3.4-2.5-5-3.1c-1.6-0.6-3.3-0.9-5.2-0.9c-3.1,0-5.4,0.8-7.1,2.2
							c-1.6,1.5-2.5,3.4-2.5,5.7c0,1.3,0.3,2.6,0.9,3.7c0.6,1.1,1.4,2,2.4,2.7s2.1,1.2,3.4,1.6c0.9,0.2,2.3,0.5,4.2,0.7
							c3.8,0.5,6.6,1,8.4,1.6c0,0.7,0,1,0,1.2c0,1.9-0.4,3.2-1.3,4c-1.2,1-3,1.6-5.4,1.6c-2.2,0-3.8-0.4-4.9-1.2s-1.8-2.1-2.3-4.1
							l-4.7,0.6c0.4,2,1.1,3.5,2.1,4.8c1,1.2,2.4,2.2,4.2,2.8s3.9,1,6.3,1c2.4,0,4.3-0.3,5.8-0.8c1.5-0.6,2.6-1.3,3.3-2.1
							c0.7-0.8,1.2-1.9,1.5-3.2c0.2-0.8,0.3-2.2,0.3-4.3v-6.3c0-4.4,0.1-7.1,0.3-8.3s0.6-2.3,1.1-3.3h-4.8
							C-167.9,0.6-168.2,1.7-168.3,3.1"/>
					</g>
				</g>
			</g>
		</g>
	</g>
</g>
</svg>
