<?xml version="1.0" encoding="utf-8"?>
<!-- Generator: Adobe Illustrator 19.0.0, SVG Export Plug-In . SVG Version: 6.00 Build 0)  -->
<!DOCTYPE svg PUBLIC "-//W3C//DTD SVG 1.1//EN" "http://www.w3.org/Graphics/SVG/1.1/DTD/svg11.dtd">
<svg version="1.1" id="Layer_1" xmlns="http://www.w3.org/2000/svg" xmlns:xlink="http://www.w3.org/1999/xlink" x="0px" y="0px"
	 viewBox="0 0 205.2 165.3" style="enable-background:new 0 0 205.2 165.3;" xml:space="preserve">
<style type="text/css">
	.st0{fill:#F38622;}
</style>
<path class="st0" d="M80.7,5c5.3,1.2,11.7,2.2,17.8,4.3c9.8,3.4,11.7,7.2,5.7,16c-7.3,10.8-15,21.8-24.7,30.3
	C64.7,68.8,48.8,81.2,31.9,91.5C13.5,102.7,2.6,95.2,3.7,73.6C4,67.2,5.3,60.3,8.2,54.7C23.5,26.4,46.2,8.3,80.7,5z"/>
<path class="st0" d="M162,160.3c-33.3-3-55.5-20.2-71.5-46.4c-1.1-1.7,0.6-6.3,2.3-8.4c7.1-8.2,14.5-16.2,22.4-23.7
	c1.9-1.8,7.1-3,9-1.8c23.7,15.5,44.9,33.8,59.9,58.3c6.3,10.2,4.7,14.1-6.7,17.9C171.9,158.1,166.1,159.3,162,160.3z"/>
<path class="st0" d="M116,24.7c7.9,17.6,6.3,32.3-1.2,45.7C101,95,80.4,111.6,52.2,116.2c-6.9,1.1-14.6-1.8-21.7-3.7
	c-2.5-0.7-4.3-4-6.5-6c2-2.1,3.7-5,6.1-6C57.7,89.2,79.7,70.7,98,47.6C103.5,40.7,108.9,33.6,116,24.7z"/>
<path class="st0" d="M194.7,138c-8-9.8-15-20.6-24.1-29.2c-13.2-12.5-27.3-24.4-42.2-34.8c-10.2-7.1-0.9-14-1.8-20.8
	c-0.1-0.9,6.3-4.2,9.3-3.8c29,3.8,69.5,39.3,65.4,74.3c-0.5,4.7-2.1,9.2-3.2,13.8C197,137.7,195.8,137.8,194.7,138z"/>
</svg>
